<svg class="diagram-root" style="background: #f5f6f6" xmlns="http://www.w3.org/2000/svg" xmlns:xlink="http://www.w3.org/1999/xlink"><style>.diagram-root { font-family: "Helvetica Neue", sans-serif; font-size: 12px; } .t { overflow: visible; } .t-bg { y: 40; fill: #fff;   } .th { fill: #005aa0;   } .tht { fill: #fff; font-size: 14px;  } .tf { fill: #323c46; overflow: visible; } .tf.pk { fill: #005aa0; font-weight: bold; } .tf.fk { font-weight: bold; } .ty { fill: #adb1b5; font-weight: normal; text-anchor: end; } .r { fill: transparent; stroke: #c3c3c3; stroke-width: 1; } .l { stroke: 1; } .i { fill: #c2c7ce; stroke: #c2c7ce; } .i.ix { fill: #afb3b6; stroke: #000; } .fa { fill: transparent; overflow: visible; } .fa .bg.hover { fill: #f7f7f7; } .c { cy: 12; r: 4; stroke: #d2d2dc; fill: #d2d2dc; } .hr { fill: transparent; stroke: #323c46; stroke-opacity: 0.035; stroke-width: 13; } .dc { stroke: #fa5a3c; fill: #fa5a3c; } .x { stroke: white; stroke-width: 1; } .hl .th { fill: #1b9bff; } .hl .tht {  } .fhl .bg { fill: #e7f4ff; } .fhls .bg {  } .r.hl { stroke: #1b9bff; } .dim { opacity: 0.25; }</style><g class="drawing-wrapper" transform="translate(29, -56) scale(1,1)"><g class="rs"><path d="M 505.18 498 m -1, 0 a 1,1 0 1,0 2,0 a 1,1 0 1,0 -2,0 M 505.18 498 m -0.5, 0 a 0.5,0.5 0 1,0 1,0 a 0.5,0.5 0 1,0 -1,0  M505.18 498 L505.18 498 517.1800000000001 498 M511.18 504 L511.18 504 511.18 492 M517.1800000000001 498 C 567.1800000000001 498, 567.9960000000001 143, 515.8199999999999 143 M 503.82 143 m -1, 0 a 1,1 0 1,0 2,0 a 1,1 0 1,0 -2,0 M 503.82 143 m -0.5, 0 a 0.5,0.5 0 1,0 1,0 a 0.5,0.5 0 1,0 -1,0  M503.82 143 L503.82 143 515.8199999999999 143 M509.82 149 L509.82 149 509.82 137" id="h1499413058" class="r"></path><path d="M 330 523 m -1, 0 a 1,1 0 1,0 2,0 a 1,1 0 1,0 -2,0 M 330 523 m -0.5, 0 a 0.5,0.5 0 1,0 1,0 a 0.5,0.5 0 1,0 -1,0  M330 523 L330 523 318 523 M324 529 L324 529 324 517 M318 523 Q 293.04 523, 268.09 333 T 218.18 143 M 206.18 143 m -1, 0 a 1,1 0 1,0 2,0 a 1,1 0 1,0 -2,0 M 206.18 143 m -0.5, 0 a 0.5,0.5 0 1,0 1,0 a 0.5,0.5 0 1,0 -1,0  M206.18 143 L206.18 143 218.18 143 M212.18 149 L212.18 149 212.18 137" id="h124672612" class="r"></path><path d="M -7 504 m -1, 0 a 1,1 0 1,0 2,0 a 1,1 0 1,0 -2,0 M -7 504 m -0.5, 0 a 0.5,0.5 0 1,0 1,0 a 0.5,0.5 0 1,0 -1,0  M-7 504 L-7 504 -19 504 M-13 510 L-13 510 -13 498 M-19 504 C -69 504, -79.8 143, -1 143 M 11 143 m -1, 0 a 1,1 0 1,0 2,0 a 1,1 0 1,0 -2,0 M 11 143 m -0.5, 0 a 0.5,0.5 0 1,0 1,0 a 0.5,0.5 0 1,0 -1,0  M11 143 L11 143 -1 143 M5 149 L5 149 5 137" id="h1757665889" class="r"></path><path d="M 168.18 529 m -1, 0 a 1,1 0 1,0 2,0 a 1,1 0 1,0 -2,0 M 168.18 529 m -0.5, 0 a 0.5,0.5 0 1,0 1,0 a 0.5,0.5 0 1,0 -1,0  M168.18 529 L168.18 529 180.18 529 M174.18 535 L174.18 535 174.18 523 M180.18 529 Q 211.14 529, 242.09 336 T 304 143 M 316 143 m -1, 0 a 1,1 0 1,0 2,0 a 1,1 0 1,0 -2,0 M 316 143 m -0.5, 0 a 0.5,0.5 0 1,0 1,0 a 0.5,0.5 0 1,0 -1,0  M316 143 L316 143 304 143 M310 149 L310 149 310 137" id="h1672048976" class="r"></path><path d="M 503.82 168 m -1, 0 a 1,1 0 1,0 2,0 a 1,1 0 1,0 -2,0 M 503.82 168 m -0.5, 0 a 0.5,0.5 0 1,0 1,0 a 0.5,0.5 0 1,0 -1,0  M503.82 168 L503.82 168 515.8199999999999 168 M509.82 174 L509.82 174 509.82 162 M515.8199999999999 168 Q 552.12 168, 588.41 306.5 T 661 445 M 673 445 m -1, 0 a 1,1 0 1,0 2,0 a 1,1 0 1,0 -2,0 M 673 445 m -0.5, 0 a 0.5,0.5 0 1,0 1,0 a 0.5,0.5 0 1,0 -1,0  M673 445 L673 445 661 445 M667 451 L667 451 667 439" id="h204939704" class="r"></path><path d="M 691 213 m -1, 0 a 1,1 0 1,0 2,0 a 1,1 0 1,0 -2,0 M 691 213 m -0.5, 0 a 0.5,0.5 0 1,0 1,0 a 0.5,0.5 0 1,0 -1,0  M691 213 L691 213 679 213 M685 219 L685 219 685 207 M679 213 Q 638.2 213, 597.41 178 T 515.8199999999999 143 M 503.82 143 m -1, 0 a 1,1 0 1,0 2,0 a 1,1 0 1,0 -2,0 M 503.82 143 m -0.5, 0 a 0.5,0.5 0 1,0 1,0 a 0.5,0.5 0 1,0 -1,0  M503.82 143 L503.82 143 515.8199999999999 143 M509.82 149 L509.82 149 509.82 137" id="h3177548053" class="r"></path></g><g class="hrs"></g><g class="ts"><svg width="187.82" height="225" x="316" y="86" id="h1639608377" class="t"><rect height="40" width="187.82" class="th"></rect><text x="13" y="25" class="tht">employees</text><rect height="185" width="187.82" class="t-bg"></rect><text x="13" y="61" class="tf pk">emp_no<tspan x="174.82" class="ty">INT</tspan></text><path d="M7,14A2,2 0 0,1 5,12A2,2 0 0,1 7,10A2,2 0 0,1 9,12A2,2 0 0,1 7,14M12.65,10C11.83,7.67 9.61,6 7, 6A6, 6 0 0, 0 1, 12A6, 6 0 0, 0 7, 18C9.61, 18 11.83, 16.33 12.65, 14H17V18H21V14H23V10H12.65Z" class="i pk" transform="translate(135.489921875, 48) scale(0.65)"></path><text x="13" y="86" class="tf fk">emp_title<tspan x="174.82" class="ty">VARCHAR(255)</tspan></text><text x="13" y="111" class="tf">birth_date<tspan x="174.82" class="ty">DATE</tspan></text><text x="13" y="136" class="tf">first_name<tspan x="174.82" class="ty">VARCHAR(255)</tspan></text><text x="13" y="161" class="tf">last_name<tspan x="174.82" class="ty">VARCHAR(255)</tspan></text><text x="13" y="186" class="tf">sex<tspan x="174.82" class="ty">VARCHAR(2)</tspan></text><text x="13" y="211" class="tf">hire_date<tspan x="174.82" class="ty">DATE</tspan></text></svg><svg width="175.18" height="100" x="-7" y="447" id="h2392569220" class="t"><rect height="40" width="175.18" class="th"></rect><text x="13" y="25" class="tht">department_manager</text><rect height="60" width="175.18" class="t-bg"></rect><text x="13" y="61" class="tf fk">dept_no<tspan x="162.18" class="ty">VARCHAR(255)</tspan></text><text x="13" y="86" class="tf fk">emp_no<tspan x="162.18" class="ty">INT</tspan></text></svg><svg width="108.7" height="100" x="691" y="156" id="h2472833127" class="t"><rect height="40" width="108.7" class="th"></rect><text x="13" y="25" class="tht">salaries</text><rect height="60" width="108.7" class="t-bg"></rect><text x="13" y="61" class="tf fk">emp_no<tspan x="95.7" class="ty">INT</tspan></text><text x="13" y="86" class="tf">salary<tspan x="95.7" class="ty">INT</tspan></text></svg><svg width="195.18" height="100" x="11" y="86" id="h475896179" class="t"><rect height="40" width="195.18" class="th"></rect><text x="13" y="25" class="tht">departments</text><rect height="60" width="195.18" class="t-bg"></rect><text x="13" y="61" class="tf pk">dept_no<tspan x="182.18" class="ty">VARCHAR(255)</tspan></text><path d="M7,14A2,2 0 0,1 5,12A2,2 0 0,1 7,10A2,2 0 0,1 9,12A2,2 0 0,1 7,14M12.65,10C11.83,7.67 9.61,6 7, 6A6, 6 0 0, 0 1, 12A6, 6 0 0, 0 7, 18C9.61, 18 11.83, 16.33 12.65, 14H17V18H21V14H23V10H12.65Z" class="i pk" transform="translate(76.381171875, 48) scale(0.65)"></path><text x="13" y="86" class="tf">dept_name<tspan x="182.18" class="ty">VARCHAR(255)</tspan></text></svg><svg width="166.49" height="100" x="673" y="388" id="h311790747" class="t"><rect height="40" width="166.49" class="th"></rect><text x="13" y="25" class="tht">titles</text><rect height="60" width="166.49" class="t-bg"></rect><text x="13" y="61" class="tf fk">title_id<tspan x="153.49" class="ty">VARCHAR(255)</tspan></text><text x="13" y="86" class="tf">title<tspan x="153.49" class="ty">VARCHAR(255)</tspan></text></svg><svg width="175.18" height="100" x="330" y="441" id="h3682426126" class="t"><rect height="40" width="175.18" class="th"></rect><text x="13" y="25" class="tht">department_employees</text><rect height="60" width="175.18" class="t-bg"></rect><text x="13" y="61" class="tf fk">emp_no<tspan x="162.18" class="ty">INT</tspan></text><text x="13" y="86" class="tf fk">dept_no<tspan x="162.18" class="ty">VARCHAR(255)</tspan></text></svg></g></g><text class="qdbd-link" x="10" y="20">www.quickdatabasediagrams.com</text></svg>